<mxfile host="app.diagrams.net" agent="Mozilla/5.0 (Windows NT 10.0; Win64; x64; rv:131.0) Gecko/20100101 Firefox/131.0" version="24.7.17">
  <diagram id="C5RBs43oDa-KdzZeNtuy" name="Page-1">
    <mxGraphModel grid="1" page="1" gridSize="10" guides="1" tooltips="1" connect="1" arrows="1" fold="1" pageScale="1" pageWidth="827" pageHeight="1169" math="0" shadow="0">
      <root>
        <mxCell id="WIyWlLk6GJQsqaUBKTNV-0" />
        <mxCell id="WIyWlLk6GJQsqaUBKTNV-1" parent="WIyWlLk6GJQsqaUBKTNV-0" />
        <mxCell id="NKOT5IWmP0Iot90rLGU_-2" style="edgeStyle=orthogonalEdgeStyle;rounded=0;orthogonalLoop=1;jettySize=auto;html=1;entryX=0.5;entryY=0;entryDx=0;entryDy=0;" edge="1" parent="WIyWlLk6GJQsqaUBKTNV-1" source="NKOT5IWmP0Iot90rLGU_-0" target="NKOT5IWmP0Iot90rLGU_-1">
          <mxGeometry relative="1" as="geometry" />
        </mxCell>
        <mxCell id="NKOT5IWmP0Iot90rLGU_-0" value="Start" style="ellipse;whiteSpace=wrap;html=1;" vertex="1" parent="WIyWlLk6GJQsqaUBKTNV-1">
          <mxGeometry x="45" y="40" width="120" height="80" as="geometry" />
        </mxCell>
        <mxCell id="NKOT5IWmP0Iot90rLGU_-3" style="edgeStyle=orthogonalEdgeStyle;rounded=0;orthogonalLoop=1;jettySize=auto;html=1;" edge="1" parent="WIyWlLk6GJQsqaUBKTNV-1" source="NKOT5IWmP0Iot90rLGU_-1">
          <mxGeometry relative="1" as="geometry">
            <mxPoint x="105" y="240" as="targetPoint" />
          </mxGeometry>
        </mxCell>
        <mxCell id="NKOT5IWmP0Iot90rLGU_-1" value="Input n" style="shape=parallelogram;perimeter=parallelogramPerimeter;whiteSpace=wrap;html=1;fixedSize=1;" vertex="1" parent="WIyWlLk6GJQsqaUBKTNV-1">
          <mxGeometry x="40" y="150" width="130" height="60" as="geometry" />
        </mxCell>
        <mxCell id="NKOT5IWmP0Iot90rLGU_-6" style="edgeStyle=orthogonalEdgeStyle;rounded=0;orthogonalLoop=1;jettySize=auto;html=1;entryX=0.5;entryY=0;entryDx=0;entryDy=0;" edge="1" parent="WIyWlLk6GJQsqaUBKTNV-1" source="NKOT5IWmP0Iot90rLGU_-4" target="NKOT5IWmP0Iot90rLGU_-5">
          <mxGeometry relative="1" as="geometry" />
        </mxCell>
        <mxCell id="NKOT5IWmP0Iot90rLGU_-4" value="Input a[i]" style="shape=parallelogram;perimeter=parallelogramPerimeter;whiteSpace=wrap;html=1;fixedSize=1;" vertex="1" parent="WIyWlLk6GJQsqaUBKTNV-1">
          <mxGeometry x="40" y="240" width="130" height="60" as="geometry" />
        </mxCell>
        <mxCell id="NKOT5IWmP0Iot90rLGU_-7" style="edgeStyle=orthogonalEdgeStyle;rounded=0;orthogonalLoop=1;jettySize=auto;html=1;entryX=1;entryY=0.5;entryDx=0;entryDy=0;exitX=1;exitY=0.5;exitDx=0;exitDy=0;" edge="1" parent="WIyWlLk6GJQsqaUBKTNV-1" source="NKOT5IWmP0Iot90rLGU_-5" target="NKOT5IWmP0Iot90rLGU_-4">
          <mxGeometry relative="1" as="geometry">
            <mxPoint x="171" y="270" as="targetPoint" />
            <mxPoint x="181" y="380" as="sourcePoint" />
            <Array as="points">
              <mxPoint x="266" y="380" />
              <mxPoint x="266" y="270" />
            </Array>
          </mxGeometry>
        </mxCell>
        <mxCell id="NKOT5IWmP0Iot90rLGU_-8" value="No" style="edgeLabel;html=1;align=center;verticalAlign=middle;resizable=0;points=[];" connectable="0" vertex="1" parent="NKOT5IWmP0Iot90rLGU_-7">
          <mxGeometry x="-0.7555" y="2" relative="1" as="geometry">
            <mxPoint x="8" y="2" as="offset" />
          </mxGeometry>
        </mxCell>
        <mxCell id="NKOT5IWmP0Iot90rLGU_-9" value="i++" style="edgeLabel;html=1;align=center;verticalAlign=middle;resizable=0;points=[];" connectable="0" vertex="1" parent="NKOT5IWmP0Iot90rLGU_-7">
          <mxGeometry x="-0.0399" relative="1" as="geometry">
            <mxPoint y="-5" as="offset" />
          </mxGeometry>
        </mxCell>
        <mxCell id="NKOT5IWmP0Iot90rLGU_-5" value="Is i&amp;lt;n?" style="rhombus;whiteSpace=wrap;html=1;" vertex="1" parent="WIyWlLk6GJQsqaUBKTNV-1">
          <mxGeometry x="40" y="340" width="130" height="80" as="geometry" />
        </mxCell>
        <mxCell id="NKOT5IWmP0Iot90rLGU_-12" value="" style="endArrow=none;html=1;rounded=0;" edge="1" parent="WIyWlLk6GJQsqaUBKTNV-1">
          <mxGeometry width="50" height="50" relative="1" as="geometry">
            <mxPoint x="105" y="510" as="sourcePoint" />
            <mxPoint x="105" y="420" as="targetPoint" />
          </mxGeometry>
        </mxCell>
        <mxCell id="NKOT5IWmP0Iot90rLGU_-13" value="Yes" style="edgeLabel;html=1;align=center;verticalAlign=middle;resizable=0;points=[];" connectable="0" vertex="1" parent="NKOT5IWmP0Iot90rLGU_-12">
          <mxGeometry x="-0.0127" y="-1" relative="1" as="geometry">
            <mxPoint x="-2" as="offset" />
          </mxGeometry>
        </mxCell>
        <mxCell id="NKOT5IWmP0Iot90rLGU_-14" value="1" style="ellipse;whiteSpace=wrap;html=1;aspect=fixed;" vertex="1" parent="WIyWlLk6GJQsqaUBKTNV-1">
          <mxGeometry x="95" y="510" width="20" height="20" as="geometry" />
        </mxCell>
        <mxCell id="NKOT5IWmP0Iot90rLGU_-16" style="edgeStyle=orthogonalEdgeStyle;rounded=0;orthogonalLoop=1;jettySize=auto;html=1;" edge="1" parent="WIyWlLk6GJQsqaUBKTNV-1" source="NKOT5IWmP0Iot90rLGU_-15">
          <mxGeometry relative="1" as="geometry">
            <mxPoint x="419" y="180" as="targetPoint" />
          </mxGeometry>
        </mxCell>
        <mxCell id="NKOT5IWmP0Iot90rLGU_-15" value="1" style="ellipse;whiteSpace=wrap;html=1;aspect=fixed;" vertex="1" parent="WIyWlLk6GJQsqaUBKTNV-1">
          <mxGeometry x="409" y="70" width="20" height="20" as="geometry" />
        </mxCell>
        <mxCell id="NKOT5IWmP0Iot90rLGU_-18" style="edgeStyle=orthogonalEdgeStyle;rounded=0;orthogonalLoop=1;jettySize=auto;html=1;" edge="1" parent="WIyWlLk6GJQsqaUBKTNV-1" source="NKOT5IWmP0Iot90rLGU_-17">
          <mxGeometry relative="1" as="geometry">
            <mxPoint x="419" y="320" as="targetPoint" />
          </mxGeometry>
        </mxCell>
        <mxCell id="NKOT5IWmP0Iot90rLGU_-22" value="No" style="edgeLabel;html=1;align=center;verticalAlign=middle;resizable=0;points=[];" connectable="0" vertex="1" parent="NKOT5IWmP0Iot90rLGU_-18">
          <mxGeometry x="-0.304" relative="1" as="geometry">
            <mxPoint y="2" as="offset" />
          </mxGeometry>
        </mxCell>
        <mxCell id="NKOT5IWmP0Iot90rLGU_-23" style="edgeStyle=orthogonalEdgeStyle;rounded=0;orthogonalLoop=1;jettySize=auto;html=1;" edge="1" parent="WIyWlLk6GJQsqaUBKTNV-1" source="NKOT5IWmP0Iot90rLGU_-17" target="NKOT5IWmP0Iot90rLGU_-24">
          <mxGeometry relative="1" as="geometry">
            <mxPoint x="524" y="220" as="targetPoint" />
          </mxGeometry>
        </mxCell>
        <mxCell id="NKOT5IWmP0Iot90rLGU_-25" value="Yes" style="edgeLabel;html=1;align=center;verticalAlign=middle;resizable=0;points=[];" connectable="0" vertex="1" parent="NKOT5IWmP0Iot90rLGU_-23">
          <mxGeometry x="0.1713" y="-1" relative="1" as="geometry">
            <mxPoint x="-1" y="-1" as="offset" />
          </mxGeometry>
        </mxCell>
        <mxCell id="NKOT5IWmP0Iot90rLGU_-17" value="Is a[i+1]-a[i]&amp;lt;2?" style="rhombus;whiteSpace=wrap;html=1;" vertex="1" parent="WIyWlLk6GJQsqaUBKTNV-1">
          <mxGeometry x="354" y="180" width="130" height="80" as="geometry" />
        </mxCell>
        <mxCell id="NKOT5IWmP0Iot90rLGU_-28" style="edgeStyle=orthogonalEdgeStyle;rounded=0;orthogonalLoop=1;jettySize=auto;html=1;entryX=0;entryY=0.5;entryDx=0;entryDy=0;" edge="1" parent="WIyWlLk6GJQsqaUBKTNV-1" source="NKOT5IWmP0Iot90rLGU_-21" target="NKOT5IWmP0Iot90rLGU_-17">
          <mxGeometry relative="1" as="geometry">
            <mxPoint x="319" y="220" as="targetPoint" />
            <Array as="points">
              <mxPoint x="320" y="360" />
              <mxPoint x="320" y="220" />
            </Array>
          </mxGeometry>
        </mxCell>
        <mxCell id="NKOT5IWmP0Iot90rLGU_-30" value="i++" style="edgeLabel;html=1;align=center;verticalAlign=middle;resizable=0;points=[];" connectable="0" vertex="1" parent="NKOT5IWmP0Iot90rLGU_-28">
          <mxGeometry x="0.0417" y="-2" relative="1" as="geometry">
            <mxPoint as="offset" />
          </mxGeometry>
        </mxCell>
        <mxCell id="NKOT5IWmP0Iot90rLGU_-31" value="No" style="edgeLabel;html=1;align=center;verticalAlign=middle;resizable=0;points=[];" connectable="0" vertex="1" parent="NKOT5IWmP0Iot90rLGU_-28">
          <mxGeometry x="-0.8333" y="-1" relative="1" as="geometry">
            <mxPoint as="offset" />
          </mxGeometry>
        </mxCell>
        <mxCell id="NKOT5IWmP0Iot90rLGU_-32" style="edgeStyle=orthogonalEdgeStyle;rounded=0;orthogonalLoop=1;jettySize=auto;html=1;" edge="1" parent="WIyWlLk6GJQsqaUBKTNV-1" source="NKOT5IWmP0Iot90rLGU_-21">
          <mxGeometry relative="1" as="geometry">
            <mxPoint x="419" y="440.0000000000001" as="targetPoint" />
          </mxGeometry>
        </mxCell>
        <mxCell id="NKOT5IWmP0Iot90rLGU_-33" value="Yes" style="edgeLabel;html=1;align=center;verticalAlign=middle;resizable=0;points=[];" connectable="0" vertex="1" parent="NKOT5IWmP0Iot90rLGU_-32">
          <mxGeometry x="-0.1853" relative="1" as="geometry">
            <mxPoint as="offset" />
          </mxGeometry>
        </mxCell>
        <mxCell id="NKOT5IWmP0Iot90rLGU_-21" value="Is i&amp;lt;n-1?" style="rhombus;whiteSpace=wrap;html=1;" vertex="1" parent="WIyWlLk6GJQsqaUBKTNV-1">
          <mxGeometry x="354" y="320" width="130" height="80" as="geometry" />
        </mxCell>
        <mxCell id="NKOT5IWmP0Iot90rLGU_-27" style="edgeStyle=orthogonalEdgeStyle;rounded=0;orthogonalLoop=1;jettySize=auto;html=1;entryX=0;entryY=0.5;entryDx=0;entryDy=0;" edge="1" parent="WIyWlLk6GJQsqaUBKTNV-1" source="NKOT5IWmP0Iot90rLGU_-24" target="NKOT5IWmP0Iot90rLGU_-26">
          <mxGeometry relative="1" as="geometry" />
        </mxCell>
        <mxCell id="NKOT5IWmP0Iot90rLGU_-24" value="Output &quot;NO&quot;" style="shape=parallelogram;perimeter=parallelogramPerimeter;whiteSpace=wrap;html=1;fixedSize=1;" vertex="1" parent="WIyWlLk6GJQsqaUBKTNV-1">
          <mxGeometry x="514" y="190" width="120" height="60" as="geometry" />
        </mxCell>
        <mxCell id="NKOT5IWmP0Iot90rLGU_-26" value="End" style="ellipse;whiteSpace=wrap;html=1;" vertex="1" parent="WIyWlLk6GJQsqaUBKTNV-1">
          <mxGeometry x="669" y="180" width="120" height="80" as="geometry" />
        </mxCell>
        <mxCell id="NKOT5IWmP0Iot90rLGU_-36" style="edgeStyle=orthogonalEdgeStyle;rounded=0;orthogonalLoop=1;jettySize=auto;html=1;entryX=0.5;entryY=0;entryDx=0;entryDy=0;" edge="1" parent="WIyWlLk6GJQsqaUBKTNV-1" source="NKOT5IWmP0Iot90rLGU_-34" target="NKOT5IWmP0Iot90rLGU_-35">
          <mxGeometry relative="1" as="geometry" />
        </mxCell>
        <mxCell id="NKOT5IWmP0Iot90rLGU_-34" value="Output &quot;YES&quot;" style="shape=parallelogram;perimeter=parallelogramPerimeter;whiteSpace=wrap;html=1;fixedSize=1;" vertex="1" parent="WIyWlLk6GJQsqaUBKTNV-1">
          <mxGeometry x="359" y="440" width="120" height="60" as="geometry" />
        </mxCell>
        <mxCell id="NKOT5IWmP0Iot90rLGU_-35" value="End" style="ellipse;whiteSpace=wrap;html=1;" vertex="1" parent="WIyWlLk6GJQsqaUBKTNV-1">
          <mxGeometry x="359" y="530" width="120" height="80" as="geometry" />
        </mxCell>
      </root>
    </mxGraphModel>
  </diagram>
</mxfile>
